<!-- HmIP-PDT: original OpenCCU for Homey illustration; MIT licensed. Generated by scripts/generate-device-artwork.mjs. -->
<svg xmlns="http://www.w3.org/2000/svg" viewBox="0 0 960 960">
  <g
    fill="none"
    stroke="#000"
    stroke-width="14"
    stroke-linecap="round"
    stroke-linejoin="round"
  >
    <g transform="translate(-41.126214 -28.543689) scale(1.048544)">
      <path
        d="M129 242Q130 204 170 194L614 84Q658 73 689 94L836 194Q866 216 865 250V728Q865 768 826 780L387 885Q345 897 315 875L166 770Q138 750 136 717Z"
      />
      <path
        d="M170 194L326 300Q353 319 389 309L835 198M326 300L326 853M389 309Q368 316 368 348V843Q368 873 393 876"
      />
      <g stroke-width="10">
        <path d="M181 244L174 704Q174 725 195 740L283 801" />
      </g>
      <g transform="matrix(0.96 -0.25 0 1 76 54)">
        <ellipse cx="561" cy="557" rx="198" ry="211" />
        <g stroke-width="10"><ellipse cx="566" cy="561" rx="172" ry="185" /></g>
        <path
          d="M444 438Q468 414 499 414H638Q666 415 685 441V675Q663 700 635 700H502Q470 700 446 677Z"
          stroke-width="10"
        />
        <ellipse cx="502" cy="558" rx="20" ry="29" />
        <ellipse cx="630" cy="558" rx="20" ry="29" />
        <g stroke-width="10">
          <path d="M559 366V407M580 366V407M559 711V749M580 711V749" />
        </g>
        <rect x="696" y="400" width="38" height="43" rx="9" />
      </g>
    </g>
  </g>
</svg>
