<!-- HmIP-WSM: original OpenCCU for Homey illustration; MIT licensed. Generated by scripts/generate-device-artwork.mjs. -->
<svg xmlns="http://www.w3.org/2000/svg" viewBox="0 0 960 960">
  <g
    fill="none"
    stroke="#000"
    stroke-width="14"
    stroke-linecap="round"
    stroke-linejoin="round"
  >
    <g transform="translate(-39.900744 -21.677419) scale(1.071960)">
      <ellipse cx="574" cy="107" rx="111" ry="35" />
      <path d="M463 107V220Q464 251 575 251Q684 251 685 220V107" />
      <g stroke-width="10">
        <path d="M480 145V213" />
        <path d="M503 145V213" />
        <path d="M526 145V213" />
        <path d="M549 145V213" />
        <path d="M572 145V213" />
        <path d="M595 145V213" />
        <path d="M618 145V213" />
        <path d="M641 145V213" />
        <path d="M664 145V213" />
      </g>
      <path
        d="M209 284L541 210Q652 192 768 250Q800 268 812 305Q845 411 840 608Q836 675 790 708L645 774Q620 786 579 789L249 772Q176 769 154 711Q123 624 132 421Q136 315 209 284Z"
      />
      <path
        d="M209 284L562 303Q610 307 623 357Q659 524 637 698Q630 764 579 789"
      />
      <g stroke-width="10">
        <path
          d="M562 303L751 246M640 688L828 631M180 366Q185 327 229 330L529 346Q567 351 575 393Q600 530 583 685Q579 727 535 730L248 716Q206 715 191 675Q161 534 180 366Z"
        />
      </g>
      <rect x="300" y="451" width="155" height="155" rx="31" />
      <g stroke-width="10">
        <rect x="322" y="473" width="111" height="111" rx="18" />
      </g>
      <path d="M635 777V837Q636 864 700 864Q767 864 768 837V721" />
      <g stroke-width="10">
        <path d="M637 811Q705 832 767 805M637 832Q705 855 767 826" />
      </g>
    </g>
  </g>
</svg>
