<!-- HmIP-MOD-TM: original OpenCCU for Homey illustration; MIT licensed. Generated by scripts/generate-device-artwork.mjs. -->
<svg xmlns="http://www.w3.org/2000/svg" viewBox="0 0 960 960">
  <g
    fill="none"
    stroke="#000"
    stroke-width="14"
    stroke-linecap="round"
    stroke-linejoin="round"
  >
    <g transform="translate(-179.120125 -154.184087) scale(1.347894)">
      <path
        d="M218 401Q218 383 238 383H686Q706 383 706 403V763Q706 784 685 784H239Q218 784 218 763Z"
      />
      <path
        d="M228 386L284 345H739Q760 345 760 366V725Q760 745 745 754L700 783M706 403L760 365"
      />
      <g stroke-width="10">
        <circle cx="324" cy="461" r="15" />
        <circle cx="594" cy="461" r="15" />
      </g>
      <path
        d="M294 345V306C294 260 588 310 588 231C588 193 537 188 496 190H424"
        stroke-width="22"
      />
      <rect x="302" y="157" width="122" height="65" rx="8" />
      <path d="M302 172H243V207H302M257 182H286" />
    </g>
  </g>
</svg>
